:version 1.10
:name ASF
:units
  mass 1
  length 1
  angle deg
:documentation
  ASF file generated by Kaydara
:root
  axis xyz
  order  tx ty tz rx ry rz
  position 0 0 0
  orientation 0 0 0
:bonedata
  begin
    id 1
    name lfemurDummy
    direction 0.61522 -0.761478 0.204097
    length 5.68318
    axis 0 -0 0 xyz
  end
  begin
    id 2
    name lfemur
    direction 0.34202 -0.939693 -5.84747e-008
    length 16.9147
    axis 0 -0 20 xyz
    dof rx ry rz
    limits( -inf , inf )
( -inf , inf )
( -inf , inf )

  end
  begin
    id 3
    name ltibia
    direction 0.34202 -0.939693 1.20839e-009
    length 18.0532
    axis 0 -0 20 xyz
    dof rz ry rx
    limits( -inf , inf )
( -inf , inf )
( -inf , inf )

  end
  begin
    id 4
    name lfoot
    direction 0.0841971 -0.23133 0.969225
    length 5.23822
    axis -90 7.62852e-016 20 xyz
    dof ry rx rz
    limits( -inf , inf )
( -inf , inf )
( -inf , inf )

  end
  begin
    id 5
    name ltoes
    direction 0 0 0
    length 0
    axis 0 0 0 xyz
    dof rz ry rx
    limits( -inf , inf )
( -inf , inf )
( -inf , inf )

  end
  begin
    id 6
    name rfemurDummy
    direction -0.625247 -0.75382 0.202044
    length 5.74091
    axis 0 -0 0 xyz
  end
  begin
    id 7
    name rfemur
    direction -0.34202 -0.939693 -1.47013e-008
    length 16.4922
    axis 0 -0 -20 xyz
    dof rx ry rz
    limits( -inf , inf )
( -inf , inf )
( -inf , inf )

  end
  begin
    id 8
    name rtibia
    direction -0.34202 -0.939693 -7.74345e-010
    length 18.2421
    axis 0 -0 -20 xyz
    dof rz ry rx
    limits( -inf , inf )
( -inf , inf )
( -inf , inf )

  end
  begin
    id 9
    name rfoot
    direction -0.124331 -0.341598 0.931586
    length 5.45787
    axis -90 -7.62852e-016 -20 xyz
    dof ry rx rz
    limits( -inf , inf )
( -inf , inf )
( -inf , inf )

  end
  begin
    id 10
    name rtoes
    direction 0 0 0
    length 0
    axis 0 0 0 xyz
    dof rz ry rx
    limits( -inf , inf )
( -inf , inf )
( -inf , inf )

  end
  begin
    id 11
    name lowerbackDummy
    direction 0 0 0
    length 0
    axis 0 -0 0 xyz
  end
  begin
    id 12
    name lowerback
    direction -0.0218484 0.994884 -0.0986304
    length 4.45607
    axis 0 -0 0 xyz
    dof rx ry rz
    limits( -inf , inf )
( -inf , inf )
( -inf , inf )

  end
  begin
    id 13
    name upperback
    direction -0.00973057 0.999717 -0.0217111
    length 4.47449
    axis 0 -0 0 xyz
    dof rx ry rz
    limits( -inf , inf )
( -inf , inf )
( -inf , inf )

  end
  begin
    id 14
    name thorax
    direction -0.000928171 0.999699 0.0245198
    length 4.50973
    axis 0 -0 0 xyz
    dof rx ry rz
    limits( -inf , inf )
( -inf , inf )
( -inf , inf )

  end
  begin
    id 15
    name rclavicle
    direction -0.9009 0.425937 -0.0834055
    length 7.28587
    axis 0 -0 0 xyz
    dof rx ry rz
    limits( -inf , inf )
( -inf , inf )
( -inf , inf )

  end
  begin
    id 16
    name rhumerus
    direction -1 -2.23604e-007 -1.42637e-007
    length 13.5704
    axis 180 30 90 xyz
    dof rx ry rz
    limits( -inf , inf )
( -inf , inf )
( -inf , inf )

  end
  begin
    id 17
    name rradius
    direction -1 5.68281e-008 -4.4952e-007
    length 8.06782
    axis 180 30 90 xyz
    dof rz ry rx
    limits( -inf , inf )
( -inf , inf )
( -inf , inf )

  end
  begin
    id 18
    name rwrist
    direction -1 1.51393e-007 1.38143e-007
    length 4.03391
    axis -90 -90 0 xyz
    dof rz rx ry
    limits( -inf , inf )
( -inf , inf )
( -inf , inf )

  end
  begin
    id 19
    name rthumb
    direction 0 0 0
    length 0
    axis 0 0 0 xyz
    dof ry rx rz
    limits( -inf , inf )
( -inf , inf )
( -inf , inf )

  end
  begin
    id 20
    name rhand
    direction -1 -3.34077e-007 -5.59631e-007
    length 1.29744
    axis -90 -90 0 xyz
    dof ry rx rz
    limits( -inf , inf )
( -inf , inf )
( -inf , inf )

  end
  begin
    id 21
    name rfingers
    direction 0 0 0
    length 0
    axis 0 0 0 xyz
    dof rz ry rx
    limits( -inf , inf )
( -inf , inf )
( -inf , inf )

  end
  begin
    id 22
    name lclavicle
    direction 0.940017 0.332249 -0.0773232
    length 8.29589
    axis 0 -0 0 xyz
    dof rx ry rz
    limits( -inf , inf )
( -inf , inf )
( -inf , inf )

  end
  begin
    id 23
    name lhumerus
    direction 1 7.41158e-008 -1.44768e-008
    length 12.0042
    axis 180 -30 -90 xyz
    dof rx ry rz
    limits( -inf , inf )
( -inf , inf )
( -inf , inf )

  end
  begin
    id 24
    name lradius
    direction 1 -1.32972e-007 3.10821e-007
    length 8.1902
    axis 180 -30 -90 xyz
    dof rz ry rx
    limits( -inf , inf )
( -inf , inf )
( -inf , inf )

  end
  begin
    id 25
    name lwrist
    direction 1 3.08957e-007 4.01394e-007
    length 4.09509
    axis -90 90 0 xyz
    dof rz rx ry
    limits( -inf , inf )
( -inf , inf )
( -inf , inf )

  end
  begin
    id 26
    name lthumb
    direction 0 0 0
    length 0
    axis 0 0 0 xyz
    dof ry rx rz
    limits( -inf , inf )
( -inf , inf )
( -inf , inf )

  end
  begin
    id 27
    name lhand
    direction 1 -1.64125e-007 -6.99514e-007
    length 1.37229
    axis -90 90 0 xyz
    dof ry rx rz
    limits( -inf , inf )
( -inf , inf )
( -inf , inf )

  end
  begin
    id 28
    name lfingers
    direction 0 0 0
    length 0
    axis 0 0 0 xyz
    dof rz ry rx
    limits( -inf , inf )
( -inf , inf )
( -inf , inf )

  end
  begin
    id 29
    name lowerneck
    direction -0.030798 0.998024 0.0547665
    length 3.93918
    axis 0 -0 0 xyz
    dof rx ry rz
    limits( -inf , inf )
( -inf , inf )
( -inf , inf )

  end
  begin
    id 30
    name upperneck
    direction 0.0531588 0.996611 -0.0627736
    length 3.95491
    axis 0 -0 0 xyz
    dof rx ry rz
    limits( -inf , inf )
( -inf , inf )
( -inf , inf )

  end
  begin
    id 31
    name head
    direction 0 0 0
    length 0
    axis 0 0 0 xyz
    dof rx ry rz
    limits( -inf , inf )
( -inf , inf )
( -inf , inf )

  end
:hierarchy
  begin
    root lfemurDummy rfemurDummy lowerbackDummy
    lfemurDummy lfemur
    lfemur ltibia
    ltibia lfoot
    lfoot ltoes
    rfemurDummy rfemur
    rfemur rtibia
    rtibia rfoot
    rfoot rtoes
    lowerbackDummy lowerback
    lowerback upperback
    upperback thorax
    thorax rclavicle lclavicle lowerneck
    rclavicle rhumerus
    rhumerus rradius
    rradius rwrist
    rwrist rthumb rhand
    rhand rfingers
    lclavicle lhumerus
    lhumerus lradius
    lradius lwrist
    lwrist lthumb lhand
    lhand lfingers
    lowerneck upperneck
    upperneck head
  end

:SAMPLES-PER-SECOND 30
:FULLY-SPECIFIED
:DEGREES
75
root  5.260511083 35.33955672 -2.519488898 6.945999146 -65.50099945 -8.264007568
lowerback  20.49740028 4.50496006 -3.362879992
upperback  6.211510181 4.779079914 -1.547659993
thorax  -4.819190025 2.211030006 -0.8976380229
lowerneck  -5.29501009 7.667160034 -2.080650091
upperneck  -2.026979923 10.33909988 0.9716479778
head  0.07911779732 5.192339897 0.7809820175
lclavicle  0 -9.442270133e-015 7.951389973e-016
lhumerus  3.511399984 -22.21179962 83.63130188
lradius  2.651301808e-031 -2.332261297e-031 138.6629944
lwrist  -1.412450015e-030 -0 8.454919815
lhand  -1.496451383e-031 -27.76390076 20.11240005
lfingers  90 7.125020027 -90
lthumb  89.89689403 5.08795885 91.16245106
rclavicle  0 -9.442270133e-015 7.951389973e-016
rhumerus  0.06629540026 23.95400047 -77.19229889
rradius  -2.643022444e-031 2.341639682e-031 138.4600067
rwrist  7.062250077e-031 -3.531125038e-031 -2.842089891
rhand  -7.920061211e-032 -33.2840004 9.303460121
rfingers  -90 -7.125020027 -90
rthumb  -92.93752616 -24.25625642 -97.11982154
rfemur  -23.49139977 3.001189947 3.090679884
rtibia  -0 0 72.36039734
rfoot  -4.750349002e-032 -21.69339943 2.148960114
rtoes  5.373923086 19.29304026 -105.8922705
lfemur  -48.17380142 -4.341370106 5.762360096
ltibia  -0 0 57.36970139
lfoot  -0 -2.535219908 -14.01350021
ltoes  -4.250644065 -19.5611806 -102.515957
76
root  5.449289037 35.61422093 -2.582333407 7.026000977 -65.3789978 -6.904998779
lowerback  20.67350006 4.39207983 -3.437259912
upperback  6.302320004 4.589600086 -1.71886003
thorax  -4.800330162 2.114840031 -0.9993979931
lowerneck  -5.42884016 7.512949944 -2.172830105
upperneck  -2.813940048 10.14000034 0.7633039951
head  -0.131091997 5.095680237 0.7141379714
lclavicle  0 -9.442270133e-015 7.951389973e-016
lhumerus  4.048009872 -21.96719933 83.27519989
lradius  2.652685815e-031 -2.330687024e-031 138.6970062
lwrist  0 -0 8.98900032
lhand  -1.496451383e-031 -27.76390076 20.11240005
lfingers  90 7.125020027 -90
lthumb  89.89689403 5.08795885 91.16245106
rclavicle  0 -9.442270133e-015 7.951389973e-016
rhumerus  0.6248480082 23.50670052 -77.18270111
rradius  -2.640241124e-031 2.344775222e-031 138.3919983
rwrist  1.412450015e-030 -3.531125038e-031 -3.482120037
rhand  -7.920061211e-032 -33.2840004 9.303460121
rfingers  -90 -7.125020027 -90
rthumb  -92.93752616 -24.25625642 -97.11982154
rfemur  -24.78730011 3.308350086 2.317879915
rtibia  -0 0 71.42990112
rfoot  -4.719464541e-032 -20.73049927 2.990190029
rtoes  5.373923086 19.29304026 -105.8922705
lfemur  -48.5141983 -4.656970024 5.615129948
ltibia  -0 0 55.58390045
lfoot  -0 -1.872110009 -15.52470016
ltoes  -4.250644065 -19.5611806 -102.515957
77
root  5.631111175 35.85999857 -2.621799942 7.138000488 -65.375 -5.557006836
lowerback  20.78479958 4.361599922 -3.624540091
upperback  6.255899906 4.503310204 -1.73684001
thorax  -4.919000149 2.073559999 -0.9022099972
lowerneck  -5.502470016 7.327799797 -2.460319996
upperneck  -3.328459978 9.906609535 0.5397139788
head  -0.2754650116 4.983469963 0.6789759994
lclavicle  0 -9.442270133e-015 7.951389973e-016
lhumerus  4.323649883 -21.8640995 83.29060364
lradius  2.648287793e-031 -2.335683155e-031 138.5890045
lwrist  -7.062250077e-031 -0 8.987139702
lhand  -1.496451383e-031 -27.76390076 20.11240005
lfingers  90 7.125020027 -90
lthumb  89.89689403 5.08795885 91.16245106
rclavicle  0 -9.442270133e-015 7.951389973e-016
rhumerus  1.083850026 23.19190025 -76.89710236
rradius  -2.636267705e-031 2.349241713e-031 138.2949982
rwrist  7.062250077e-031 -1.765562519e-031 -3.958019972
rhand  -7.920061211e-032 -33.2840004 9.303460121
rfingers  -90 -7.125020027 -90
rthumb  -92.93752616 -24.25625642 -97.11982154
rfemur  -26.13559914 3.694570065 1.466689944
rtibia  -0 0 70.54149628
rfoot  -4.69627172e-032 -19.96949959 3.677170038
rtoes  5.373923086 19.29304026 -105.8922705
lfemur  -48.88339996 -4.701889992 5.316299915
ltibia  -0 0 54.38650131
lfoot  -0 -1.676239967 -16.7343998
ltoes  -4.250644065 -19.5611806 -102.515957
78
root  5.797489046 36.07911238 -2.647933247 7.013000488 -65.51100159 -4.07699585
lowerback  20.80389977 4.382009983 -3.861069918
upperback  6.228519917 4.476490021 -1.77737999
thorax  -4.971809864 2.061170101 -0.809186995
lowerneck  -5.694109917 7.157330036 -2.698040009
upperneck  -3.614000082 9.69178009 0.3180580139
head  -0.3286089897 4.879829884 0.6483619809
lclavicle  0 -9.442270133e-015 7.951389973e-016
lhumerus  4.64880991 -21.79490089 83.33760071
lradius  2.643430872e-031 -2.341178605e-031 138.4700012
lwrist  -1.412450015e-030 -0 9.106599808
lhand  -1.496451383e-031 -27.76390076 20.11240005
lfingers  90 7.125020027 -90
lthumb  89.89689403 5.08795885 91.16245106
rclavicle  0 -9.442270133e-015 7.951389973e-016
rhumerus  1.635249972 22.88890076 -76.58999634
rradius  -2.62875096e-031 2.357649768e-031 138.1119995
rwrist  7.062250077e-031 -0 -4.370950222
rhand  -7.920061211e-032 -33.2840004 9.303460121
rfingers  -90 -7.125020027 -90
rthumb  -92.93752616 -24.25625642 -97.11982154
rfemur  -27.30220032 4.226689816 0.5229759812
rtibia  -0 0 69.70269775
rfoot  -4.676805776e-032 -19.30249977 4.218540192
rtoes  5.373923086 19.29304026 -105.8922705
lfemur  -49.11800003 -4.702740192 4.857910156
ltibia  -0 0 53.92039871
lfoot  -0 -1.911350012 -16.98310089
ltoes  -4.250644065 -19.5611806 -102.515957
79
root  5.949044415 36.2617763 -2.66213342 7.054992676 -65.73899841 -2.968994141
lowerback  20.74060059 4.363880157 -3.949959993
upperback  6.228189945 4.434979916 -1.822739959
thorax  -4.941500187 2.041130066 -0.7932879925
lowerneck  -5.797790051 7.033219814 -2.867330074
upperneck  -3.885699987 9.532699585 0.1064449996
head  -0.3899430037 4.803760052 0.6072130203
lclavicle  0 -9.442270133e-015 7.951389973e-016
lhumerus  4.926959991 -21.57970047 83.35299683
lradius  2.637538621e-031 -2.347814741e-031 138.326004
lwrist  -1.412450015e-030 1.765562519e-031 9.273530006
lhand  -1.496451383e-031 -27.76390076 20.11240005
lfingers  90 7.125020027 -90
lthumb  89.89689403 5.08795885 91.16245106
rclavicle  0 -9.442270133e-015 7.951389973e-016
rhumerus  2.257289886 22.65690041 -76.34049988
rradius  -2.621909229e-031 2.365256019e-031 137.9459991
rwrist  3.531125038e-031 -3.531125038e-031 -4.787960052
rhand  -7.920061211e-032 -33.2840004 9.303460121
rfingers  -90 -7.125020027 -90
rthumb  -92.93752616 -24.25625642 -97.11982154
rfemur  -28.22669983 4.901659966 -0.1661549956
rtibia  -0 0 68.9414978
rfoot  -4.66200394e-032 -18.77619934 4.721399784
rtoes  5.373923086 19.29304026 -105.8922705
lfemur  -49.22159958 -4.510109901 4.361060143
ltibia  -0 0 54.2859993
lfoot  -0 -3.129770041 -16.36840057
ltoes  -4.250644065 -19.5611806 -102.515957
